 <svg  version="1.0" xmlns="http://www.w3.org/2000/svg"  width="169.000000pt" height="300.000000pt" viewBox="0 0 169.000000 300.000000"  preserveAspectRatio="xMidYMid meet">  <g transform="translate(0.000000,300.000000) scale(0.100000,-0.100000)" fill="#df870c" stroke="none"> <path d="M750 2705 c-19 -8 -61 -21 -93 -30 -31 -9 -55 -21 -52 -26 4 -5 -1 -9 -10 -9 -9 0 -35 -17 -58 -39 -23 -21 -63 -57 -89 -80 -25 -23 -54 -58 -64 -79 -9 -20 -25 -47 -35 -60 -10 -13 -23 -40 -30 -60 -6 -20 -20 -55 -30 -78 -10 -23 -19 -58 -21 -78 -1 -20 -5 -36 -8 -36 -4 0 -6 -42 -6 -92 1 -51 -2 -110 -5 -130 -4 -25 -1 -44 8 -57 15 -22 9 -129 -9 -146 -3 -4 -2 -20 2 -36 5 -16 5 -31 0 -34 -11 -7 -4 -43 11 -61 11 -14 10 -272 -7 -1026 -3 -137 -1 -168 10 -168 8 0 14 10 13 23 -2 84 15 1169 19 1197 6 35 6 35 -15 16 -12 -11 -21 -14 -21 -8 0 7 5 12 10 12 6 0 10 7 10 15 0 8 4 15 9 15 13 0 10 41 -3 59 -8 10 -8 15 2 18 6 3 12 9 12 14 0 6 -4 8 -9 4 -11 -6 -26 33 -17 42 3 4 6 -1 6 -10 0 -9 3 -17 8 -17 12 0 12 64 -1 72 -9 6 -9 8 1 8 6 0 12 7 12 16 0 11 -6 14 -22 8 -23 -7 -23 -6 -4 14 13 15 16 29 12 47 -4 14 -7 61 -7 105 0 54 -4 80 -12 80 -7 1 -1 7 12 14 16 9 20 15 10 18 -18 6 32 160 74 225 18 26 38 61 46 76 17 32 142 152 186 178 17 10 64 30 105 46 69 25 86 27 220 27 129 0 153 -3 220 -26 41 -14 102 -42 134 -61 68 -41 155 -122 176 -164 8 -15 19 -35 26 -43 18 -24 63 -159 77 -230 7 -39 10 -101 7 -155 -4 -64 -2 -101 8 -127 12 -32 12 -46 -1 -95 -16 -63 -49 -132 -69 -144 -7 -5 -13 -12 -13 -16 0 -15 -55 -128 -72 -150 -31 -37 -113 -93 -141 -97 -31 -3 -64 -19 -108 -52 -36 -28 -124 -76 -124 -68 0 3 -12 -9 -27 -27 -39 -47 -104 -109 -113 -109 -15 0 -17 25 -3 39 8 7 11 16 8 19 -3 4 -10 1 -14 -7 -6 -10 -10 -9 -15 4 -5 15 -1 16 29 11 22 -4 35 -3 35 4 0 5 -15 11 -32 11 -28 2 -29 2 -8 6 14 3 30 9 35 15 7 8 5 9 -7 5 -9 -3 -19 -1 -22 6 -3 9 -7 8 -14 -2 -5 -7 -15 -10 -21 -7 -15 10 -14 29 2 20 6 -4 9 -4 5 1 -4 4 -4 13 2 20 5 6 10 27 12 47 1 25 6 34 15 31 7 -3 13 -11 13 -19 0 -20 18 -17 30 5 14 26 13 30 -7 30 -47 2 -51 4 -43 25 5 12 11 30 15 40 5 18 8 17 35 -12 16 -18 34 -32 39 -32 6 0 11 -4 11 -10 0 -18 -18 -10 -49 21 -18 18 -31 25 -31 17 0 -21 56 -59 96 -65 28 -5 32 -8 23 -19 -14 -17 -51 -18 -67 -2 -9 9 -12 7 -12 -11 0 -20 4 -22 25 -17 19 5 23 3 19 -9 -4 -10 -13 -13 -25 -10 -21 7 -26 -10 -6 -19 10 -5 10 -7 0 -12 -18 -8 -16 -25 2 -18 8 4 15 12 15 19 0 8 9 17 21 20 13 4 18 12 15 21 -4 10 0 14 11 12 10 -2 18 2 18 7 0 18 30 50 47 51 14 1 15 -2 5 -17 -7 -11 -17 -19 -23 -19 -6 0 -16 -12 -23 -26 l-12 -26 31 26 c18 14 35 26 39 26 4 0 7 27 7 60 0 45 -4 59 -13 56 -8 -4 -12 3 -11 20 1 13 7 23 14 20 6 -2 11 2 11 10 0 7 -6 15 -14 18 -7 3 -13 11 -13 17 0 8 4 8 15 -1 12 -10 15 -10 15 3 0 8 -6 17 -12 20 -7 2 -9 8 -5 13 11 12 27 -16 27 -48 0 -15 4 -29 9 -32 26 -17 181 92 245 173 50 63 71 75 41 24 l-17 -28 21 25 c11 14 19 31 16 37 -4 12 32 83 42 83 2 0 1 -10 -3 -22 -4 -13 -7 -31 -6 -41 1 -25 -53 -91 -68 -82 -9 6 -86 -96 -82 -109 2 -5 -4 -6 -13 -2 -13 5 -15 1 -10 -17 7 -22 7 -22 -9 -2 -9 12 -15 15 -16 7 0 -7 -4 -11 -9 -8 -5 4 -7 -3 -4 -14 3 -11 4 -20 2 -20 -2 0 -19 -4 -37 -9 -20 -6 -30 -6 -27 0 10 15 -12 10 -29 -6 -12 -12 -13 -22 -6 -41 13 -32 12 -37 0 -29 -11 7 -40 -18 -40 -34 0 -16 7 -14 34 10 13 12 27 32 30 45 4 16 14 24 27 24 17 0 20 -5 17 -25 -6 -30 21 -35 48 -7 10 9 20 16 23 14 3 -2 7 1 9 7 2 5 -7 15 -19 22 -19 10 -25 9 -36 -7 -12 -17 -13 -17 -13 4 0 12 3 22 8 23 4 0 21 2 39 5 18 2 35 -1 38 -6 3 -6 11 -10 16 -10 6 0 7 5 4 10 -3 6 0 10 7 11 7 1 2 5 -12 9 l-25 8 27 1 c15 1 30 -4 33 -9 4 -6 11 -7 18 -3 6 4 -3 12 -24 19 -18 7 -28 13 -21 13 6 1 12 7 12 15 0 10 9 14 27 12 22 -3 32 3 45 26 26 41 22 43 -10 7 -20 -22 -33 -30 -42 -24 -11 7 -11 10 2 14 32 12 132 143 144 190 7 25 14 53 16 61 3 8 3 12 1 8 -7 -13 -23 -9 -23 5 0 19 -31 80 -37 73 -3 -2 4 -25 16 -50 11 -25 16 -46 11 -46 -5 0 -12 5 -15 10 -3 6 -11 10 -17 10 -6 0 -4 -8 5 -18 10 -10 17 -24 17 -32 0 -15 -33 26 -43 54 -6 15 -3 17 13 13 16 -4 18 -2 10 13 -6 10 -10 31 -10 45 0 21 4 26 16 21 9 -3 18 -6 20 -6 2 0 4 -8 4 -18 0 -10 7 -27 15 -38 8 -10 14 -14 15 -9 0 20 -28 89 -38 93 -6 2 -8 30 -5 73 l5 70 -93 -6 c-126 -8 -207 -23 -310 -55 -175 -56 -359 -161 -471 -268 -66 -62 -168 -184 -168 -199 0 -11 91 -63 109 -63 6 0 11 7 11 16 0 10 -6 14 -15 11 -8 -4 -17 -2 -20 3 -3 5 15 12 40 15 25 4 45 11 45 16 0 5 7 6 15 3 23 -9 18 -19 -16 -29 -17 -6 -30 -14 -29 -19 1 -5 -4 -12 -11 -17 -8 -4 -11 -11 -7 -14 3 -3 20 6 38 21 25 22 34 24 40 14 11 -18 3 -31 -14 -24 -8 3 -17 1 -21 -5 -3 -6 -1 -11 4 -11 6 0 11 -5 11 -11 0 -8 -4 -8 -15 1 -25 21 -106 -32 -143 -93 -39 -66 -74 -146 -67 -157 3 -5 1 -11 -4 -14 -5 -4 -10 -30 -11 -59 -1 -28 -2 -72 -3 -97 l-2 -45 35 3 c19 1 50 3 68 4 35 2 42 20 17 45 -8 8 -13 19 -10 24 4 5 0 6 -8 3 -20 -7 -28 8 -12 23 10 9 14 9 18 -1 4 -9 17 -12 36 -10 22 3 31 -1 31 -11 0 -11 -5 -12 -25 -5 -30 11 -30 9 -6 -32 11 -17 18 -35 15 -40 -7 -11 20 -10 31 1 12 12 114 16 137 6 10 -4 15 -12 11 -18 -3 -6 -1 -7 5 -3 23 14 7 44 -27 51 -12 2 -19 0 -16 -6 4 -5 2 -9 -4 -9 -5 0 -12 4 -16 9 -3 6 -26 13 -50 17 -25 3 -42 10 -39 15 7 12 71 11 97 -2 21 -10 21 -9 3 5 -10 8 -38 18 -62 22 -23 3 -51 15 -61 26 -22 24 -25 68 -5 68 10 0 12 -7 8 -25 -5 -18 -1 -27 14 -35 11 -6 20 -7 20 -3 0 4 4 2 8 -4 5 -7 21 -14 38 -15 16 -1 37 -8 46 -16 23 -19 87 -7 67 13 -8 8 -27 17 -44 21 -29 6 -29 6 -10 -9 11 -9 15 -17 8 -17 -6 0 -15 5 -18 10 -3 6 -19 10 -36 10 -16 0 -29 4 -29 8 0 5 14 7 30 4 18 -3 30 0 30 7 0 6 -4 11 -10 11 -14 0 -59 49 -48 52 16 6 -3 60 -23 65 -11 3 -19 12 -19 19 0 8 -4 14 -10 14 -5 0 -9 -9 -7 -19 1 -11 -1 -20 -5 -20 -5 -1 -8 1 -8 4 1 9 -33 40 -44 41 -19 1 -47 -17 -41 -27 4 -5 11 -9 16 -9 6 0 7 5 4 10 -9 14 7 12 28 -4 18 -14 24 -32 7 -21 -5 3 -10 1 -10 -6 0 -10 -3 -10 -12 -1 -16 16 -41 15 -36 0 3 -7 10 -13 16 -13 6 0 17 -6 24 -14 7 -8 8 -11 2 -8 -6 4 -24 -4 -40 -18 -15 -13 -31 -22 -34 -18 -3 3 1 8 8 10 6 3 10 9 6 14 -3 5 0 9 5 9 6 0 11 8 11 18 0 13 -2 14 -9 3 -5 -7 -14 -11 -20 -7 -7 5 -9 1 -5 -11 5 -15 4 -16 -5 -3 -16 22 -13 30 9 30 11 0 21 6 22 13 0 6 2 17 3 22 14 65 19 72 52 87 33 16 34 16 43 -8 5 -13 13 -24 18 -24 5 0 14 -12 21 -27 l13 -28 18 47 c10 27 16 62 13 84 -4 38 -4 38 15 19 11 -11 18 -28 16 -37 -2 -11 4 -16 16 -15 10 1 16 7 13 14 -3 7 -1 13 5 13 6 0 12 -6 15 -12 7 -20 39 15 42 46 2 13 6 30 10 35 3 6 1 12 -4 13 -38 5 -37 6 -40 -49 -1 -26 -30 -22 -57 8 -21 24 -8 42 30 42 14 0 31 7 38 15 9 11 9 14 1 9 -6 -4 -15 -3 -18 3 -4 6 -15 8 -25 5 -10 -3 -22 0 -26 6 -5 9 10 11 66 5 80 -7 93 -12 70 -26 -8 -5 -15 -15 -16 -22 -1 -26 -17 -62 -55 -122 -24 -38 -39 -74 -40 -96 -1 -19 -3 -27 -6 -18 -2 10 -8 18 -13 18 -5 0 -2 13 6 29 26 53 25 66 -7 67 -25 1 -29 -3 -35 -33 -4 -19 -3 -58 2 -86 7 -42 13 -53 30 -55 12 -2 24 -12 27 -23 5 -20 32 -26 42 -9 3 5 1 10 -5 10 -7 0 -10 6 -7 14 3 8 1 16 -5 18 -7 3 -8 10 -3 18 6 10 11 9 21 -5 15 -21 16 -20 34 63 7 28 16 52 20 52 10 0 -10 -80 -35 -142 -4 -11 -3 -18 4 -18 6 0 11 7 11 15 0 8 4 15 10 15 5 0 7 7 4 15 -3 8 1 17 9 20 8 4 14 16 13 28 -1 12 4 33 10 46 7 13 11 32 9 42 -2 11 1 19 6 19 6 0 8 4 5 9 -3 4 -2 39 3 77 8 63 -1 125 -15 111 -3 -3 -17 -2 -29 3 -16 6 -25 5 -27 -2 -2 -6 -19 -12 -36 -12 -27 -1 -34 3 -38 24 -10 43 -14 46 -11 7 2 -23 -1 -36 -7 -33 -6 2 -10 9 -8 15 1 7 -2 10 -8 6 -5 -3 -10 1 -10 9 0 9 5 16 10 16 6 0 10 9 10 21 0 11 5 17 10 14 6 -3 10 1 10 11 0 13 3 14 15 4 17 -14 21 -35 5 -25 -6 3 -10 -5 -10 -19 0 -14 5 -28 12 -32 7 -5 9 -1 6 12 -5 21 17 49 32 39 5 -3 7 -11 4 -19 -3 -8 10 -15 43 -22 35 -6 51 -15 58 -31 11 -25 20 -29 30 -13 3 6 14 10 25 10 10 0 20 7 24 15 3 8 12 12 21 9 9 -4 15 -1 15 7 0 10 2 11 8 2 4 -6 20 -15 36 -19 25 -6 28 -4 23 10 -4 9 -2 16 3 16 6 0 10 -8 10 -17 0 -15 2 -16 10 -3 8 12 10 10 10 -9 0 -16 -4 -21 -14 -18 -8 3 -17 -1 -20 -9 -3 -8 -11 -14 -18 -14 -9 0 -8 3 2 10 14 9 13 11 -9 14 -5 0 -13 4 -17 9 -11 11 -46 9 -39 -3 3 -5 -1 -10 -10 -10 -11 0 -15 -5 -11 -15 7 -20 -4 -19 -18 0 -10 14 -13 14 -31 0 -11 -9 -15 -14 -9 -11 15 7 58 -30 49 -43 -3 -6 -2 -11 3 -11 12 0 22 24 22 51 0 12 7 19 19 19 17 0 20 -11 12 -52 0 -4 -8 -5 -17 -1 -14 5 -14 3 -3 -15 14 -22 29 -20 29 4 0 8 4 13 9 10 5 -3 7 -15 4 -26 -6 -22 15 -25 29 -5 12 16 9 22 -12 28 -29 8 -25 23 12 42 18 9 28 11 21 4 -8 -8 -8 -19 -1 -42 10 -26 8 -33 -10 -48 -12 -9 -22 -22 -22 -28 0 -16 -35 -14 -49 3 -6 8 -10 20 -9 27 2 7 -10 15 -27 18 -18 4 -34 15 -40 29 -12 27 -25 29 -25 2 0 -11 4 -20 9 -20 5 0 4 -11 -2 -25 l-12 -24 -6 22 c-3 12 -6 -3 -7 -36 -1 -69 -11 -125 -22 -132 -5 -3 -6 -22 -4 -43 4 -27 3 -33 -5 -22 -5 8 -7 18 -4 24 4 5 1 6 -6 2 -7 -5 -10 -11 -7 -14 3 -3 -2 -15 -11 -26 -12 -13 -13 -17 -3 -10 20 15 48 14 54 -3 4 -10 -1 -12 -18 -7 -14 3 -27 1 -32 -7 -5 -9 -2 -10 9 -6 10 3 24 4 32 1 11 -5 8 -12 -14 -35 -16 -16 -32 -29 -35 -29 -2 0 -16 -4 -31 -10 l-25 -10 22 -45 c18 -36 31 -47 59 -55 49 -14 61 -31 58 -84 -3 -43 0 -48 41 -83 44 -38 120 -145 120 -170 0 -8 10 -27 21 -43 16 -21 20 -36 15 -56 -6 -23 -9 -25 -18 -13 -8 11 -9 10 -4 -4 7 -20 -16 -61 -28 -50 -4 4 -4 -1 0 -12 4 -10 9 -15 11 -9 2 5 22 9 46 7 23 -1 33 0 23 4 -15 4 -16 7 -5 14 12 7 11 9 -1 9 -9 0 -21 -5 -28 -12 -6 -6 -15 -8 -19 -4 -12 12 20 27 47 22 14 -3 41 -8 60 -11 l35 -6 -30 17 c-47 26 -63 44 -71 78 -3 17 -16 47 -27 66 -12 19 -20 35 -19 35 2 0 0 8 -3 18 -4 9 -2 23 3 30 6 7 9 22 6 34 -4 13 0 22 11 27 10 4 14 2 9 -5 -4 -7 -1 -10 7 -7 8 3 26 -1 41 -8 15 -8 29 -10 32 -5 3 5 74 9 157 10 l150 2 -5 -33 c-15 -88 -79 -218 -100 -203 -3 3 -4 2 -1 -1 5 -8 -58 -54 -105 -76 -45 -21 -104 -32 -95 -18 3 5 14 10 23 11 9 0 4 5 -12 9 -22 7 -32 5 -41 -6 -11 -16 -119 -29 -110 -13 3 4 -9 1 -26 -8 -26 -13 -37 -13 -74 -3 -24 7 -46 18 -49 26 -3 7 -28 23 -55 35 -28 11 -55 27 -61 34 -8 9 -26 12 -58 8 -26 -3 -67 -5 -91 -5 l-44 0 24 -20 c45 -36 164 -86 246 -103 69 -14 104 -15 221 -7 120 9 147 14 204 40 96 44 150 98 188 188 17 41 34 97 37 125 l6 49 -131 0 c-95 0 -132 -3 -135 -12 -4 -10 -6 -10 -6 0 -1 6 -14 12 -30 12 -23 0 -31 -5 -34 -23 -4 -21 -4 -21 -6 -1 -1 17 -9 23 -33 26 -59 6 -68 0 -68 -43 0 -22 -5 -39 -11 -39 -8 0 -10 25 -7 80 3 54 1 80 -6 80 -8 0 -8 3 0 8 7 4 11 39 12 85 l0 77 -59 0 c-37 0 -59 4 -59 11 0 8 20 10 60 7 53 -4 59 -2 63 16 4 20 4 20 6 1 1 -19 9 -20 226 -23 l225 -4 -1 224 c-1 151 -4 204 -9 163 -4 -33 -8 -94 -9 -136 -1 -42 -4 -109 -7 -150 l-6 -74 -202 3 c-110 2 -206 8 -213 13 -7 6 -13 6 -17 1 -3 -5 -28 -12 -56 -14 -28 -3 -56 -10 -61 -15 -13 -13 0 -45 17 -39 7 3 16 0 20 -5 3 -6 17 -8 30 -5 l23 6 0 -129 -1 -129 -44 46 c-38 39 -44 51 -44 88 0 41 -27 84 -53 84 -4 0 -15 6 -23 14 -7 8 -19 16 -25 18 -6 2 -13 16 -14 32 -2 15 -1 25 2 22 3 -3 17 4 31 14 13 11 30 20 38 20 22 0 74 34 74 49 0 8 3 12 6 9 6 -7 24 9 67 61 15 18 27 29 27 26 0 -4 6 -2 14 4 8 7 24 14 36 16 12 2 29 13 38 23 10 10 27 24 40 31 13 7 32 20 43 29 10 9 31 17 46 18 16 1 29 3 31 4 1 1 6 3 11 4 6 0 35 23 65 50 47 41 66 70 125 187 39 77 68 139 66 139 -2 0 4 19 14 43 31 73 35 114 13 145 -16 22 -20 41 -17 102 1 44 -4 98 -12 130 -9 30 -19 71 -23 90 -7 33 -32 97 -51 130 -5 8 -18 33 -30 55 -32 59 -166 185 -197 185 -5 0 -15 7 -22 15 -12 14 -102 45 -153 51 -15 2 -36 8 -45 13 -28 15 -261 12 -302 -4z m744 -660 c7 -29 -2 -72 -21 -101 -8 -13 -13 -33 -10 -44 3 -11 1 -23 -4 -26 -12 -7 -12 -54 0 -54 5 0 7 -9 4 -20 -3 -11 -10 -20 -16 -20 -6 0 -8 -3 -4 -6 5 -6 0 -14 -29 -47 -6 -7 -11 -16 -11 -20 -2 -14 -101 -115 -107 -109 -3 2 -8 -3 -12 -12 -3 -9 -12 -16 -19 -16 -7 0 -18 -6 -24 -14 -7 -8 -26 -19 -42 -25 -27 -9 -31 -8 -39 13 -8 22 -64 56 -92 56 -8 0 -20 -6 -27 -12 -11 -10 -13 -10 -7 0 9 15 -60 17 -69 2 -4 -6 -11 -7 -17 -4 -6 4 -8 2 -4 -4 3 -6 2 -13 -4 -17 -5 -3 -10 -2 -10 4 0 6 -6 8 -13 5 -8 -3 -20 2 -27 11 -7 8 -21 15 -31 15 -10 0 -21 5 -24 10 -4 6 -10 8 -15 5 -4 -3 -10 2 -14 10 -8 22 -66 54 -85 47 -21 -7 -51 -42 -51 -58 0 -7 -5 -16 -12 -20 -6 -4 -8 -3 -4 4 6 10 -26 -2 -86 -33 -22 -11 -30 -11 -45 0 -17 13 -17 14 5 37 12 14 22 29 22 34 0 5 9 15 20 22 11 7 20 17 20 22 0 13 37 50 50 50 6 0 9 6 8 13 -2 6 3 11 10 9 6 -1 12 5 12 13 0 8 4 15 10 15 5 0 21 11 35 25 14 14 25 23 25 20 0 -3 20 8 45 25 25 17 45 28 45 25 0 -3 9 3 19 13 39 34 57 46 83 51 5 1 24 10 43 21 20 11 42 20 51 20 9 0 12 5 8 12 -5 7 -3 8 5 3 7 -4 23 -3 34 3 40 18 92 37 99 35 4 -2 23 4 43 13 20 8 40 12 45 9 4 -3 18 -1 31 3 12 5 62 8 110 8 81 0 88 -2 93 -21z m99 -127 c6 -9 7 -23 2 -34 -8 -17 -9 -17 -13 6 -2 14 -9 31 -15 39 -10 11 -9 13 2 10 8 -3 19 -12 24 -21z m-1313 -234 c0 -8 -4 -12 -10 -9 -5 3 -10 10 -10 16 0 5 5 9 10 9 6 0 10 -7 10 -16z m563 -229 c-3 -9 -8 -14 -10 -11 -3 3 -2 9 2 15 9 16 15 13 8 -4z m-202 -4 c-8 -5 -10 -14 -6 -21 5 -9 4 -11 -4 -6 -6 4 -25 1 -41 -8 -32 -15 -42 -2 -18 22 16 16 31 15 22 0 -4 -7 2 -5 12 5 10 9 25 17 34 17 12 0 13 -2 1 -9z m669 -1 c13 -8 13 -10 -2 -10 -9 0 -20 5 -23 10 -8 13 5 13 25 0z m-480 -61 c0 -31 -3 -40 -14 -36 -15 6 -32 -22 -41 -70 -3 -17 -12 -34 -19 -36 -18 -7 -10 62 10 84 8 9 11 19 7 22 -3 4 -2 7 4 7 5 0 18 16 29 35 10 19 20 35 21 35 2 0 3 -18 3 -41z m-290 1 c-8 -5 -17 -7 -19 -4 -3 3 1 9 9 14 8 5 17 7 19 4 3 -3 -1 -9 -9 -14z m67 -7 c-3 -3 -11 -2 -17 2 -9 6 -9 10 1 16 14 8 27 -7 16 -18z m37 15 c-3 -4 -9 -8 -15 -8 -5 0 -9 4 -9 8 0 5 7 9 15 9 8 0 12 -4 9 -9z m473 -3 c-2 -5 -15 -11 -30 -13 -19 -2 -24 -7 -20 -19 5 -13 2 -15 -11 -10 -10 4 -24 7 -32 7 -8 0 -14 5 -14 11 0 6 7 8 16 5 15 -6 59 16 50 25 -2 2 7 4 20 4 13 0 23 -4 21 -10z m-477 -25 c-33 -26 -52 -25 -21 0 13 11 28 20 35 20 6 0 0 -9 -14 -20z m50 -123 c0 -5 -4 -5 -10 -2 -5 3 -10 14 -10 23 0 15 2 15 10 2 5 -8 10 -19 10 -23z m-52 -29 c-7 -4 -24 -7 -38 -7 l-25 1 27 7 c23 5 25 8 14 24 -12 15 -15 15 -26 2 -7 -8 -19 -15 -27 -15 -13 0 -13 3 -3 15 7 8 16 13 20 10 5 -3 12 0 15 6 5 7 16 3 31 -12 18 -17 21 -25 12 -31z m-88 -16 c0 -5 -18 -19 -41 -31 -31 -18 -38 -26 -28 -32 16 -10 8 -12 -15 -3 -19 7 -21 24 -3 24 6 0 26 11 42 25 31 25 45 31 45 17z m110 -21 c0 -6 -4 -13 -10 -16 -5 -3 -10 1 -10 9 0 9 5 16 10 16 6 0 10 -4 10 -9z m-40 -11 c0 -5 -4 -10 -10 -10 -5 0 -10 5 -10 10 0 6 5 10 10 10 6 0 10 -4 10 -10z m-56 -41 c-9 -16 -24 -10 -17 8 5 12 3 14 -7 8 -9 -5 -11 -4 -6 4 6 9 11 9 22 0 7 -6 11 -15 8 -20z m-87 -16 c-4 -3 -2 -12 4 -19 6 -8 8 -21 5 -30 -5 -14 -4 -15 9 -4 13 11 14 10 9 -4 -4 -10 -18 -16 -36 -16 -23 0 -29 4 -24 15 3 8 0 15 -6 15 -6 0 -1 11 12 25 13 14 26 25 28 25 3 0 2 -3 -1 -7z m307 -640 c16 -13 37 -23 47 -23 11 0 19 -5 19 -11 0 -5 5 -7 12 -3 7 4 8 3 4 -4 -11 -18 -118 3 -152 29 -6 5 -14 6 -17 2 -4 -3 -7 -1 -7 6 0 7 -4 9 -10 6 -5 -3 -10 -2 -10 4 0 10 27 16 65 16 11 0 33 -10 49 -22z"/> <path d="M720 2656 c-109 -39 -116 -43 -197 -114 -58 -52 -91 -92 -131 -158 -59 -100 -105 -225 -84 -231 6 -3 12 -11 12 -19 0 -12 81 -14 538 -15 295 0 565 -2 600 -4 52 -2 62 0 63 14 0 12 2 11 9 -4 7 -16 9 -13 9 17 1 62 -55 220 -105 295 -54 81 -113 131 -209 178 -104 51 -171 65 -315 65 -104 -1 -136 -5 -190 -24z m180 4 c13 -7 21 -7 25 0 4 6 11 8 16 4 6 -3 39 -7 73 -9 34 -2 79 -10 98 -18 20 -9 38 -13 41 -11 2 2 30 -9 61 -26 54 -28 75 -42 134 -87 59 -45 155 -236 167 -330 3 -25 -1 -34 -15 -38 -11 -3 -276 -5 -591 -3 -638 3 -598 -2 -578 74 6 21 22 58 35 81 14 24 25 46 26 50 1 5 9 16 18 26 9 9 23 30 30 45 8 15 25 38 39 51 14 13 19 20 11 16 -8 -3 -2 4 15 17 16 13 45 38 63 56 19 17 38 32 43 32 19 0 25 2 57 22 17 11 32 17 32 14 0 -4 16 1 36 9 20 8 56 15 80 15 23 0 46 5 49 10 8 12 12 12 35 0z"/> <path d="M292 2024 l2 -89 6 85 c3 52 8 79 13 69 5 -9 6 -44 3 -78 -4 -44 -2 -61 7 -61 9 0 9 -2 0 -8 -6 -4 -13 -16 -15 -27 -2 -15 2 -19 17 -17 19 3 19 3 2 -10 -22 -17 -13 -49 11 -41 11 3 9 -1 -5 -11 -22 -16 -22 -20 -23 -294 0 -152 -2 -299 -5 -327 -4 -39 -1 -32 13 30 27 116 39 150 93 243 l48 83 -36 47 c-38 49 -109 189 -101 198 3 2 22 -30 42 -72 20 -41 51 -95 69 -119 l34 -43 43 59 c59 81 181 196 268 252 150 97 350 178 492 200 14 3 -45 5 -131 6 -86 0 -312 4 -502 8 l-347 6 2 -89z m341 56 c60 0 106 -4 103 -9 -3 -5 1 -14 9 -21 12 -10 16 -9 22 6 7 17 22 19 178 20 156 0 166 -1 125 -13 -49 -14 -193 -84 -198 -95 -2 -5 -9 -8 -16 -8 -7 0 -34 -14 -62 -32 -27 -18 -55 -31 -61 -30 -7 2 -13 -2 -13 -8 0 -14 -40 -49 -57 -50 -6 0 -15 -5 -19 -12 -5 -7 -3 -8 6 -3 9 5 11 4 6 -3 -4 -7 -13 -12 -19 -12 -7 0 -18 -9 -25 -20 -7 -12 -17 -18 -23 -15 -5 4 -8 3 -7 -2 4 -13 -93 -124 -102 -118 -5 3 -12 0 -16 -6 -4 -8 -3 -9 4 -5 7 4 12 3 12 -3 0 -15 -15 -21 -30 -10 -8 5 -12 9 -7 9 4 0 -9 24 -28 53 -37 55 -40 64 -57 157 -6 30 -15 60 -20 67 -5 7 -5 14 1 17 6 4 7 16 3 29 -7 19 -8 75 -3 112 0 6 38 9 93 8 51 -1 142 -2 201 -3z m124 -22 c-3 -8 -6 -5 -6 6 -1 11 2 17 5 13 3 -3 4 -12 1 -19z m-403 -390 c-3 -4 -9 -8 -15 -8 -5 0 -9 4 -9 8 0 5 7 9 15 9 8 0 12 -4 9 -9z m44 -53 c30 -36 31 -50 4 -100 -15 -27 -30 -52 -34 -55 -4 -3 -14 -21 -22 -40 -13 -32 -14 -25 -11 94 2 95 6 131 16 137 9 6 18 3 26 -9 7 -9 16 -22 21 -27z"/> <path d="M703 1915 c-3 -9 -3 -19 1 -22 3 -4 6 2 6 11 0 12 5 16 16 12 8 -3 12 -2 9 4 -9 15 -25 12 -32 -5z"/> <path d="M1531 2048 c1 -87 17 -105 18 -20 1 42 -3 72 -9 72 -5 0 -10 -24 -9 -52z"/> <path d="M760 1585 c0 -8 4 -15 10 -15 5 0 7 7 4 15 -4 8 -8 15 -10 15 -2 0 -4 -7 -4 -15z"/> <path d="M412 1457 c-73 -143 -95 -238 -96 -407 0 -198 28 -271 165 -427 25 -30 31 -32 53 -21 14 6 23 16 19 22 -3 6 -2 8 2 3 5 -4 17 0 27 10 10 9 18 13 18 9 0 -4 6 -1 14 6 8 7 26 22 40 32 15 11 25 25 22 33 -4 8 3 13 18 13 19 0 22 4 18 25 -3 19 0 25 13 25 14 0 15 -3 5 -15 -11 -13 -10 -14 4 -9 18 7 21 20 6 29 -5 3 -6 13 -3 21 5 13 10 10 28 -12 20 -26 24 -27 41 -14 10 8 15 10 11 3 -6 -9 0 -8 18 1 15 8 26 17 25 21 -1 4 4 12 12 17 9 6 5 7 -12 3 -24 -6 -24 -6 -5 10 21 17 25 37 13 72 -6 18 -4 21 10 16 13 -5 14 -3 6 6 -6 7 -25 15 -43 17 -23 4 -31 1 -31 -10 0 -9 -7 -16 -15 -16 -13 0 -14 4 -5 21 14 25 -2 49 -32 49 -10 0 -21 7 -25 16 -5 13 -7 13 -14 2 -6 -8 -12 -9 -16 -3 -9 13 -63 14 -63 2 0 -5 -6 -7 -12 -4 -16 5 -80 -21 -90 -37 -12 -18 -9 -66 5 -67 6 0 21 -2 32 -4 30 -6 146 16 139 26 -3 5 -1 9 5 9 5 0 12 -4 16 -9 7 -13 -27 -31 -68 -36 -17 -2 -56 -7 -86 -10 -41 -5 -51 -4 -46 6 6 9 1 10 -21 5 -39 -10 -40 -11 -13 -45 27 -33 65 -54 82 -45 7 4 -5 -10 -26 -31 -20 -20 -47 -55 -59 -76 -12 -22 -25 -39 -30 -39 -16 0 -7 27 22 66 35 46 36 54 11 54 -25 0 -70 47 -77 79 -2 14 -11 49 -18 76 -15 53 -19 183 -6 200 4 6 8 48 8 95 1 47 7 99 13 115 12 30 98 121 112 117 4 -1 6 4 5 11 -2 6 4 13 12 13 8 1 22 2 30 3 19 1 7 11 -61 48 l-55 31 -52 -101z m96 48 c12 -4 22 -12 22 -18 0 -6 -3 -8 -6 -5 -3 4 -29 -20 -57 -52 -29 -32 -56 -59 -61 -59 -14 -2 3 47 33 91 16 24 27 46 25 49 -4 8 5 6 44 -6z m-108 -149 c0 -3 -4 -8 -10 -11 -5 -3 -10 -1 -10 4 0 6 5 11 10 11 6 0 10 -2 10 -4z m-15 -126 c0 -44 -3 -80 -6 -80 -3 0 -6 -6 -7 -12 -7 -79 -7 -126 -1 -161 4 -23 12 -68 18 -100 5 -31 17 -64 26 -73 8 -8 15 -20 15 -26 0 -6 3 -9 6 -5 9 9 34 -18 34 -36 0 -9 -6 -17 -12 -20 -18 -6 -50 12 -43 24 4 5 2 9 -3 9 -12 0 -48 84 -62 146 -22 93 -7 383 19 392 5 2 7 11 4 20 -4 9 -2 13 3 9 4 -4 8 -44 9 -87z m342 -255 c34 -14 38 -19 39 -53 0 -36 0 -36 -10 -10 -12 33 -31 42 -59 26 -12 -6 -36 -12 -54 -14 -17 -1 -36 -5 -42 -9 -6 -3 -11 -1 -11 4 0 6 -5 10 -11 9 -6 -2 -13 4 -14 13 -3 16 21 26 100 43 11 2 21 4 22 5 2 0 20 -6 40 -14z m98 -65 c-10 -11 -24 -20 -32 -20 -8 0 -2 10 14 24 33 28 45 25 18 -4z m-71 -35 c3 -8 1 -15 -3 -15 -5 0 -11 7 -15 15 -3 8 -1 15 3 15 5 0 11 -7 15 -15z m96 -1 c0 -8 -4 -12 -10 -9 -5 3 -10 10 -10 16 0 5 5 9 10 9 6 0 10 -7 10 -16z m-140 -4 c-13 -8 -12 -10 4 -10 41 0 2 -15 -47 -18 -28 -1 -62 -9 -74 -18 -25 -15 -63 -5 -63 18 0 6 6 5 17 -3 11 -10 14 -10 9 -1 -5 8 0 12 16 13 74 5 102 9 112 19 5 5 17 10 26 10 13 0 13 -1 0 -10z m104 -11 c-3 -6 0 -16 6 -24 9 -11 9 -15 1 -15 -6 0 -16 12 -21 26 -13 33 -13 34 5 28 8 -4 12 -10 9 -15z m-27 -45 c-9 -9 -28 6 -21 18 4 6 10 6 17 -1 6 -6 8 -13 4 -17z m-73 -2 c3 -5 -4 -15 -15 -22 -10 -8 -19 -20 -19 -27 0 -7 -9 -17 -20 -23 -11 -6 -20 -16 -20 -23 0 -13 -24 -31 -82 -59 -21 -10 -38 -21 -38 -24 0 -3 4 -2 10 1 6 3 7 -1 4 -10 -5 -12 -10 -13 -20 -4 -18 15 15 82 63 126 21 19 32 37 27 44 -4 8 -3 9 4 5 7 -4 12 -3 12 3 0 5 17 12 38 14 20 2 40 4 44 5 4 1 9 -2 12 -6z"/> <path d="M1404 1535 c-17 -13 -17 -14 -2 -15 9 0 20 5 23 11 11 17 0 20 -21 4z"/> <path d="M1531 1450 c-6 -132 1 -395 11 -401 7 -4 6 -8 -2 -11 -10 -3 -12 -82 -12 -347 1 -189 2 -344 4 -346 2 -1 11 7 21 17 14 15 14 18 2 18 -8 0 -15 5 -15 10 0 6 5 10 11 10 5 0 8 4 5 9 -3 5 -6 143 -5 307 1 457 -2 653 -11 719 -7 59 -7 59 -9 15z"/> <path d="M1147 1449 c-3 -12 -1 -19 5 -17 13 5 20 38 8 38 -4 0 -10 -9 -13 -21z"/> <path d="M1220 1430 c0 -5 5 -10 11 -10 5 0 7 5 4 10 -3 6 -8 10 -11 10 -2 0 -4 -4 -4 -10z"/> <path d="M1000 1424 c0 -2 9 -8 20 -14 11 -6 20 -7 20 -2 0 6 -9 12 -20 15 -11 3 -20 3 -20 1z"/> <path d="M1210 1395 c0 -8 2 -15 4 -15 2 0 6 7 10 15 3 8 1 15 -4 15 -6 0 -10 -7 -10 -15z"/> <path d="M468 1383 c-27 -31 -49 -84 -45 -106 4 -19 4 -18 6 5 0 14 5 28 9 30 8 3 55 88 48 88 -1 0 -10 -8 -18 -17z"/> <path d="M905 1290 c3 -5 8 -10 11 -10 2 0 4 5 4 10 0 6 -5 10 -11 10 -5 0 -7 -4 -4 -10z"/> <path d="M937 1273 c-4 -3 -7 -11 -7 -17 0 -6 5 -5 12 2 6 6 9 14 7 17 -3 3 -9 2 -12 -2z"/> <path d="M950 1209 c0 -5 5 -7 10 -4 6 3 10 8 10 11 0 2 -4 4 -10 4 -5 0 -10 -5 -10 -11z"/> <path d="M915 1170 c-3 -5 -1 -10 4 -10 6 0 11 5 11 10 0 6 -2 10 -4 10 -3 0 -8 -4 -11 -10z"/> <path d="M770 1141 c0 -12 14 -21 40 -26 11 -2 19 1 17 8 -4 21 -57 37 -57 18z"/> <path d="M1060 994 l0 -47 22 28 c11 15 40 35 62 45 l41 19 -62 0 -63 1 0 -46z"/> <path d="M1160 1013 c-54 -28 -100 -80 -100 -112 0 -13 9 -15 50 -13 l50 4 0 45 c0 30 4 42 11 37 7 -4 9 -21 5 -45 -4 -24 -2 -39 4 -39 5 0 10 5 10 10 0 6 5 10 11 10 5 0 7 -4 4 -10 -3 -5 1 -10 10 -10 14 0 16 10 14 63 -2 56 0 62 17 60 10 -1 33 -3 49 -4 17 -2 36 -7 42 -12 7 -5 20 -7 28 -3 9 3 14 2 11 -2 -3 -5 11 -14 30 -21 27 -10 41 -24 55 -54 10 -23 19 -52 19 -64 0 -24 3 -24 -125 -25 -83 -1 -85 0 -76 23 8 22 -3 83 -24 131 -10 25 -11 22 -11 -32 1 -41 5 -60 14 -60 6 0 12 -4 12 -10 0 -5 -8 -6 -17 -3 -15 6 -16 4 -5 -9 9 -11 10 -18 2 -23 -5 -3 -10 -15 -10 -25 0 -19 8 -20 135 -18 97 2 134 6 131 14 -2 6 -8 33 -12 59 -13 91 -99 153 -224 162 -45 3 -65 -1 -110 -24z m60 -37 c0 -35 -15 -40 -29 -10 -15 33 -14 34 9 34 15 0 20 -7 20 -24z m-78 -31 c-3 -16 -11 -25 -23 -25 -20 0 -23 8 -13 34 3 9 10 13 15 10 5 -3 9 0 9 6 0 6 4 9 9 6 4 -3 6 -17 3 -31z"/> <path d="M1385 1024 c49 -18 103 -69 114 -109 7 -24 9 -14 10 48 l1 77 -82 -1 -83 0 40 -15z m98 -19 c4 -8 2 -17 -2 -20 -5 -2 -11 4 -14 15 -6 23 8 27 16 5z"/> <path d="M498 1004 c-3 -3 -23 -7 -44 -10 -21 -3 -40 -7 -43 -9 -2 -3 1 -23 8 -45 12 -41 32 -62 39 -42 2 7 11 12 20 12 15 0 15 -2 2 -10 -13 -8 -12 -10 3 -10 19 0 23 15 7 25 -5 3 -10 11 -10 17 0 6 6 6 15 -2 13 -11 14 -10 9 4 -7 19 21 56 43 56 8 0 11 5 8 10 -7 11 -48 14 -57 4z m-28 -45 c0 -5 -7 -9 -15 -9 -9 0 -12 6 -9 15 6 15 24 11 24 -6z"/> <path d="M298 700 c-3 -140 -5 -256 -3 -258 8 -9 36 14 49 42 8 18 25 41 37 52 11 10 31 39 44 64 l23 45 -25 30 c-13 17 -33 40 -44 52 -24 26 -58 119 -68 183 -4 27 -9 -55 -13 -210z m85 -8 l40 -52 -39 -57 c-22 -31 -45 -65 -51 -77 -11 -17 -13 5 -13 129 1 115 3 145 12 130 6 -11 29 -44 51 -73z"/> <path d="M440 850 c12 -43 20 -52 41 -47 11 3 19 0 19 -7 0 -6 10 -12 23 -13 22 -2 22 -2 -3 17 -13 10 -29 18 -35 17 -5 -1 -10 5 -11 13 -2 26 -16 50 -29 50 -10 0 -11 -7 -5 -30z"/> <path d="M1087 872 c-23 -3 -27 -7 -21 -24 4 -13 2 -18 -4 -14 -6 4 -8 -2 -5 -14 3 -11 12 -20 20 -20 13 0 13 3 3 15 -16 19 -1 19 24 0 11 -8 28 -15 38 -15 14 0 18 8 16 40 -1 42 3 40 -71 32z"/> <path d="M1170 870 c0 -5 5 -10 10 -10 6 0 10 5 10 10 0 6 -4 10 -10 10 -5 0 -10 -4 -10 -10z"/> <path d="M1205 870 c-3 -5 1 -10 9 -10 9 0 16 5 16 10 0 6 -4 10 -9 10 -6 0 -13 -4 -16 -10z"/> <path d="M1170 825 c0 -17 6 -22 30 -22 17 0 30 4 30 9 0 5 -6 6 -12 2 -10 -6 -10 -4 0 7 18 20 15 24 -18 25 -25 1 -30 -3 -30 -21z"/> <path d="M894 811 c3 -5 -9 -16 -27 -25 -17 -8 -26 -16 -18 -16 7 0 11 -6 8 -14 -3 -7 1 -23 9 -35 8 -11 12 -21 9 -21 -4 0 0 -7 9 -15 19 -19 32 -20 16 0 -6 8 -10 20 -7 27 3 8 6 5 6 -6 1 -18 2 -18 20 -2 13 12 27 15 45 10 44 -11 43 -27 -2 -19 -44 7 -63 -7 -35 -25 16 -11 16 -11 -2 -6 -20 6 -20 6 -1 -9 18 -13 21 -13 38 5 21 22 34 25 43 10 3 -5 -4 -11 -17 -11 -14 -1 -17 -3 -7 -6 8 -2 25 0 37 4 21 8 19 11 -32 70 -38 44 -56 58 -60 48 -6 -17 -32 -20 -40 -6 -4 5 3 7 13 4 15 -4 20 0 18 16 -1 11 -7 23 -15 26 -7 2 -11 1 -8 -4z m47 -60 c-11 -7 -9 -10 10 -14 13 -3 3 -5 -23 -4 -27 1 -50 -2 -52 -8 -3 -5 -5 -2 -5 7 -1 15 15 21 69 26 13 1 13 0 1 -7z"/> <path d="M807 734 c-20 -27 -12 -31 17 -9 13 10 16 19 10 24 -5 6 -16 0 -27 -15z"/> <path d="M770 730 c-13 -25 -32 -27 -23 -2 3 9 -11 1 -31 -19 -25 -26 -34 -42 -30 -54 6 -14 3 -16 -17 -10 -14 4 -19 3 -12 -2 10 -7 8 -13 -6 -25 -13 -11 -22 -13 -29 -6 -6 6 -12 6 -16 -1 -4 -6 -12 -11 -17 -11 -6 0 -7 5 -4 10 3 6 -10 0 -30 -11 -20 -12 -34 -24 -31 -26 2 -3 15 3 28 11 14 9 27 13 31 10 11 -11 67 -14 67 -3 0 6 4 8 9 5 5 -3 8 1 7 10 0 9 9 20 22 25 19 7 24 5 32 -14 l9 -22 0 22 c1 35 -9 52 -27 46 -12 -4 -10 2 7 20 31 34 33 34 25 0 -4 -19 -3 -24 4 -15 7 11 10 11 16 -3 3 -10 11 -13 18 -9 10 6 10 5 0 -8 -10 -12 -9 -18 4 -28 13 -12 19 -10 37 12 12 15 30 28 39 30 13 2 15 7 7 18 -8 12 -15 9 -44 -23 -24 -28 -32 -33 -28 -18 3 12 19 31 35 42 21 15 26 25 19 32 -8 8 -21 1 -46 -23 -19 -19 -35 -29 -35 -23 0 6 7 16 15 23 9 7 13 15 10 18 -3 3 2 14 12 24 15 16 15 18 0 18 -9 0 -21 -9 -27 -20z m0 -35 c-7 -9 -15 -13 -17 -11 -7 7 7 26 19 26 6 0 6 -6 -2 -15z m60 12 c0 -2 -12 -14 -27 -28 l-28 -24 24 28 c23 25 31 32 31 24z"/> <path d="M1497 677 c-9 -57 -58 -145 -103 -187 -25 -23 -72 -54 -106 -70 l-60 -29 98 2 c55 0 75 3 46 4 l-54 4 24 20 c12 12 35 28 51 37 15 9 27 22 27 28 0 7 7 14 15 17 7 3 23 23 34 44 22 42 22 44 23 -69 0 -59 -1 -63 -23 -66 -42 -6 -42 -20 0 -19 l41 2 0 158 c0 86 -2 157 -4 157 -2 0 -6 -15 -9 -33z"/> <path d="M883 646 c9 -22 -5 -28 -19 -8 -12 16 -14 15 -38 -7 -24 -22 -24 -25 -8 -37 9 -7 25 -14 35 -14 9 0 17 -5 17 -11 0 -8 6 -7 17 2 15 13 15 12 4 -9 -10 -18 -10 -27 0 -38 7 -9 8 -14 1 -14 -6 0 -19 10 -29 23 -10 12 -42 39 -70 60 -46 32 -53 34 -53 18 0 -11 -8 -22 -17 -24 -17 -4 -17 -5 0 -6 10 0 20 6 23 14 10 24 37 -11 32 -40 -4 -17 2 -30 16 -42 l21 -18 -19 23 c-12 13 -14 22 -7 22 7 0 9 5 5 13 -6 9 -5 9 8 0 8 -7 18 -9 22 -5 4 4 5 -5 1 -19 -4 -16 -2 -30 4 -33 7 -4 8 -1 5 8 -3 9 -1 16 5 16 6 0 11 -4 11 -10 0 -5 6 -10 14 -10 8 0 18 -4 21 -10 4 -6 -1 -7 -12 -3 -10 3 -1 -8 21 -25 22 -18 50 -32 65 -32 16 0 21 3 14 8 -7 5 -9 13 -3 21 4 8 6 19 4 25 -3 7 6 12 18 13 13 0 17 -1 11 -4 -19 -7 -15 -23 5 -23 11 0 27 9 37 20 11 13 14 20 6 20 -21 0 -43 28 -29 36 6 4 14 2 16 -4 2 -7 8 -12 14 -12 12 0 -18 49 -41 67 -21 16 -31 16 -31 -1 0 -8 -6 -17 -12 -19 -7 -3 -4 -6 7 -6 17 -1 18 -3 5 -12 -13 -9 -13 -10 0 -6 8 2 14 10 13 16 -2 6 4 11 12 11 19 0 19 -14 0 -30 -12 -10 -13 -16 -4 -26 8 -10 8 -14 0 -14 -6 0 -11 5 -11 11 0 6 -7 9 -15 5 -13 -5 -20 5 -16 27 0 4 -7 7 -16 7 -12 0 -14 -3 -6 -11 16 -16 4 -46 -20 -52 -19 -5 -20 -4 -6 6 15 10 16 15 2 60 -10 35 -11 53 -4 60 8 8 11 5 11 -12 0 -12 4 -19 10 -16 6 3 10 1 10 -4 0 -6 -5 -11 -12 -11 -6 0 -8 -3 -5 -7 4 -3 18 4 31 16 l25 23 -47 24 c-55 28 -56 28 -49 10z m-1 -60 c-3 -6 -7 -5 -10 2 -2 7 -9 9 -15 5 -7 -4 -8 0 -3 12 5 15 4 16 -9 5 -17 -14 -21 0 -4 17 9 9 16 6 29 -10 10 -12 15 -26 12 -31z m52 -112 c4 -9 4 -19 1 -22 -3 -3 -5 0 -5 6 0 7 -10 12 -22 12 -19 0 -20 2 -8 10 21 14 27 12 34 -6z"/> <path d="M997 621 c22 -11 44 -29 48 -40 6 -21 45 -49 45 -33 0 5 -13 26 -30 47 -16 21 -30 34 -30 29 0 -4 -5 -3 -12 4 -7 7 -23 12 -37 12 -22 0 -20 -3 16 -19z"/> <path d="M441 598 c-8 -17 -27 -45 -43 -63 -19 -23 -25 -35 -16 -38 9 -3 6 -7 -7 -13 -20 -8 -44 -33 -45 -46 0 -4 14 -3 31 2 36 11 79 -3 79 -25 0 -17 15 -18 45 -4 17 8 16 9 -7 6 -15 -2 -25 0 -22 5 3 4 -1 15 -8 23 -33 36 -39 46 -33 55 3 6 14 10 23 9 11 0 12 -2 4 -6 -6 -2 -10 -9 -6 -14 10 -17 24 -9 24 14 0 18 2 19 10 7 8 -13 10 -13 10 1 0 9 7 22 15 29 16 13 21 1 7 -16 -11 -12 -35 -85 -30 -89 2 -3 29 -7 59 -10 72 -8 103 -15 109 -25 5 -8 61 -13 115 -10 30 1 30 2 -10 16 -22 8 -44 16 -50 17 -5 1 -14 5 -20 10 -5 4 -30 21 -55 37 -25 16 -60 43 -78 59 -38 35 -45 37 -62 16 -7 -8 -17 -15 -23 -15 -6 0 1 13 16 28 l27 28 -23 22 -22 21 -14 -31z m16 -30 c-3 -8 -6 -5 -6 6 -1 11 2 17 5 13 3 -3 4 -12 1 -19z m115 -93 c32 -16 21 -30 -20 -26 -46 4 -46 4 -38 36 6 23 9 25 22 14 9 -7 25 -18 36 -24z"/> <path d="M553 556 c0 -19 2 -22 12 -13 6 6 12 17 12 24 0 7 -6 13 -12 13 -7 0 -12 -11 -12 -24z"/> <path d="M611 571 c-23 -14 -5 -40 25 -38 26 2 48 27 24 27 -6 0 -8 -4 -5 -10 3 -5 2 -10 -3 -10 -5 0 -13 9 -18 20 -6 13 -13 17 -23 11z"/> <path d="M675 570 c3 -5 13 -10 21 -10 8 0 14 -4 14 -10 0 -5 5 -10 12 -10 6 0 3 9 -7 20 -18 20 -51 28 -40 10z"/> <path d="M740 561 c0 -6 4 -13 10 -16 6 -3 7 1 4 9 -7 18 -14 21 -14 7z"/> <path d="M293 416 c-4 -5 -1 -6 5 -2 7 4 12 3 12 -3 0 -14 38 -9 44 5 5 14 -53 14 -61 0z"/> <path d="M366 414 c-9 -24 -7 -29 5 -17 6 6 17 9 24 7 6 -3 18 2 25 11 7 9 8 15 2 15 -6 0 -13 -6 -16 -12 -5 -10 -7 -10 -12 0 -8 17 -21 15 -28 -4z"/> <path d="M290 381 c0 -11 -5 -23 -12 -27 -7 -4 -8 -3 -4 4 4 7 1 12 -8 12 -19 0 -21 -16 -3 -22 6 -2 73 -1 147 2 74 3 207 4 295 2 293 -8 567 -4 590 9 6 3 52 4 104 4 87 -2 95 -4 102 -23 12 -31 16 -27 11 9 l-4 30 -152 -5 c-194 -8 -529 -8 -626 0 -155 11 -405 11 -419 0 -11 -8 -13 -8 -8 1 4 6 3 14 -3 18 -5 3 -10 -3 -10 -14z"/> <path d="M775 153 c4 -14 2 -23 -4 -23 -6 0 -11 8 -11 17 0 13 -3 14 -12 5 -9 -9 -9 -16 3 -28 14 -13 17 -13 28 0 10 11 10 19 1 33 -10 16 -10 15 -5 -4z"/> </g> </svg> 